# xmcd
#
# Track frame offsets:
#	150
#	13003
#	31194
#	49580
#	69097
#	80360
#	97675
#	113118
#	130889
#	153370
#	170761
#	183966
#	199313
#	211107
#
# Disc length: 3009 seconds
#
# Revision: 1
# Processed by: cddbd v1.4PL0 Copyright (c) Steve Scherf et al.
# Submitted via: audiograbber 1.82.02
#
DISCID=a90bbf0e
DTITLE=Various Artist - Songs From Landline
DYEAR=1900
DGENRE=Country
TTITLE0=Kasey Chambers - This Flower
TTITLE1=John Williamson - True Blue
TTITLE2=Gina Jefferys - Angel
TTITLE3=Wolverines - 65 Roses
TTITLE4=Lee Kernaghan - That`s The Kind Of Life I Live
TTITLE5=Beccy Cole - This Heart
TTITLE6=Graeme Connors - Sea Horses
TTITLE7=Sara Storer - Buffalo Bill
TTITLE8=Iris Dement - Our Town
TTITLE9=Warren Williams - Dreamtime Baby
TTITLE10=Tania Kernaghan - True Country
TTITLE11=Tamara Stewart - It`s A Good Thing (You`re Crazy)
TTITLE12=Felicity - I Remember You
TTITLE13=Melinda Schneider - (Hey You) Count To
EXTD=
EXTT0=
EXTT1=
EXTT2=
EXTT3=
EXTT4=
EXTT5=
EXTT6=
EXTT7=
EXTT8=
EXTT9=
EXTT10=
EXTT11=
EXTT12=
EXTT13=
PLAYORDER=
